<svg aria-hidden="true" style="position: absolute; width: 0; height: 0; overflow: hidden;" version="1.1" xmlns="http://www.w3.org/2000/svg" xmlns:xlink="http://www.w3.org/1999/xlink">
<defs>
<symbol id="icon-antenna" viewBox="0 0 32 32">
  <path d="M30.773 22.098l-8.443-8.505 0.937-4.615c0.242 0.094 0.499 0.144 0.758 0.146h0.006c1.192 0.014 2.17-0.947 2.184-2.142l0.001-0.013c0-0.006 0-0.013 0-0.019 0.004-1.259-0.982-2.291-2.226-2.33l-0.012-0c-1.19-0.011-2.162 0.949-2.173 2.143v0.005c-0.001 0.517 0.183 1.016 0.518 1.409l-0.97 4.776-8.415-8.477c-0.179-0.18-0.427-0.291-0.7-0.291-0.55 0-0.995 0.45-0.995 1.005 0 0.272 0.109 0.519 0.285 0.699l8.443 8.505-4.683 0.95c-0.392-0.336-0.888-0.521-1.401-0.521-1.192-0.014-2.17 0.947-2.182 2.142v0.011c0.014 1.189 0.991 2.143 2.176 2.143h0.003c1.192-0.014 2.17-0.947 2.184-2.142l0.001-0.012c0-0.006 0-0.013 0-0.019 0-0.546-0.203-1.044-0.536-1.423l4.656-0.944 8.443 8.505c0.178 0.18 0.425 0.291 0.696 0.291 0.55 0 0.996-0.452 0.995-1.005 0-0.272-0.109-0.518-0.284-0.698zM23.049 6.079c0.218 0 0.413 0.096 0.547 0.249l0.001 0.001c0.134 0.152 0.216 0.354 0.215 0.573-0.003 0.473-0.384 0.855-0.853 0.855-0.003 0-0.006 0-0.009 0h0c-0.004 0-0.010 0-0.015 0-0.47 0-0.85-0.38-0.85-0.85 0-0.472 0.38-0.853 0.85-0.853 0.006 0 0.012 0 0.018 0h-0.001zM11.239 24.483c-0.005 0-0.011 0-0.017 0-0.47 0-0.85-0.38-0.85-0.85 0-0.468 0.376-0.85 0.842-0.85h0.001c0.004 0 0.009 0 0.014 0 0.47 0 0.85 0.38 0.85 0.85 0 0.468-0.376 0.848-0.84 0.85h-0z"></path>
  <path d="M30.773 22.098l-8.443-8.505 0.937-4.615c0.242 0.094 0.499 0.144 0.758 0.146h0.006c1.192 0.014 2.17-0.947 2.184-2.142l0.001-0.013c0-0.006 0-0.013 0-0.019 0.004-1.259-0.982-2.291-2.226-2.33l-0.012-0c-1.19-0.011-2.162 0.949-2.173 2.143v0.005c-0.001 0.517 0.183 1.016 0.518 1.409l-0.97 4.776-8.415-8.477c-0.179-0.18-0.427-0.291-0.7-0.291-0.55 0-0.995 0.45-0.995 1.005 0 0.272 0.109 0.519 0.285 0.699l8.443 8.505-4.683 0.95c-0.392-0.336-0.888-0.521-1.401-0.521-1.192-0.014-2.17 0.947-2.182 2.142v0.011c0.014 1.189 0.991 2.143 2.176 2.143h0.003c1.192-0.014 2.17-0.947 2.184-2.142l0.001-0.012c0-0.006 0-0.013 0-0.019 0-0.546-0.203-1.044-0.536-1.423l4.656-0.944 8.443 8.505c0.178 0.18 0.425 0.291 0.696 0.291 0.55 0 0.996-0.452 0.995-1.005 0-0.272-0.109-0.518-0.284-0.698zM23.049 6.079c0.218 0 0.413 0.096 0.547 0.249l0.001 0.001c0.134 0.152 0.216 0.354 0.215 0.573-0.003 0.473-0.384 0.855-0.853 0.855-0.003 0-0.006 0-0.009 0h0c-0.004 0-0.010 0-0.015 0-0.47 0-0.85-0.38-0.85-0.85 0-0.472 0.38-0.853 0.85-0.853 0.006 0 0.012 0 0.018 0h-0.001zM11.239 24.483c-0.005 0-0.011 0-0.017 0-0.47 0-0.85-0.38-0.85-0.85 0-0.468 0.376-0.85 0.842-0.85h0.001c0.004 0 0.009 0 0.014 0 0.47 0 0.85 0.38 0.85 0.85 0 0.468-0.376 0.848-0.84 0.85h-0z"></path>
  <path d="M13.517 2.174c0.473 0 0.857 0.384 0.857 0.857v2.603c0 0.473-0.384 0.857-0.857 0.857s-0.857-0.384-0.857-0.857v-2.603c0-0.473 0.384-0.857 0.857-0.857z"></path>
  <path d="M19.143 3.889c0.334 0.334 0.334 0.876 0 1.209l-1.601 1.603c-0.334 0.334-0.876 0.334-1.209 0s-0.334-0.876 0-1.209l1.601-1.603c0.334-0.334 0.876-0.334 1.209 0z"></path>
  <path d="M7.892 3.889c0.334-0.334 0.876-0.334 1.209 0l1.601 1.603c0.334 0.334 0.334 0.876 0 1.209s-0.876 0.334-1.209 0l-1.601-1.603c-0.334-0.334-0.334-0.876 0-1.209z"></path>
</symbol>

<symbol id="icon-clock" viewBox="0 0 32 32">
  <path d="M31.297 15.301c-0.002-8.452-6.855-15.303-15.308-15.301s-15.303 6.855-15.301 15.308c0.001 6.658 4.307 12.551 10.649 14.576 0.061 0.019 0.124 0.029 0.187 0.029 0.121-0 0.239-0.032 0.342-0.094 0.135-0.080 0.236-0.207 0.283-0.356l3.865-12.25c1.057-0.005 1.909-0.866 1.903-1.923s-0.866-1.909-1.923-1.903c-0.284 0.001-0.565 0.069-0.82 0.196l-5.106-5.107c-0.253-0.245-0.657-0.239-0.902 0.014-0.239 0.247-0.239 0.639 0 0.886l5.103 5.109c-0.392 0.799-0.168 1.764 0.536 2.309l-3.683 11.673c-7.278-2.681-11.004-10.754-8.323-18.032s10.754-11.004 18.032-8.323c7.278 2.681 11.004 10.754 8.323 18.032-1.31 3.556-4.001 6.431-7.462 7.973l-0.398-1.874c-0.073-0.345-0.411-0.565-0.756-0.492-0.109 0.023-0.209 0.074-0.293 0.148l-3.837 3.426c-0.263 0.234-0.287 0.637-0.052 0.9 0.076 0.085 0.174 0.149 0.283 0.184l4.899 1.564c0.335 0.108 0.694-0.077 0.802-0.412 0.034-0.106 0.040-0.219 0.017-0.328l-0.391-1.839c5.664-2.388 9.342-7.942 9.329-14.089zM15.992 14.664c0.352 0 0.638 0.286 0.638 0.638s-0.286 0.638-0.638 0.638c-0.352 0-0.638-0.285-0.638-0.638s0.285-0.638 0.638-0.638z"></path>
</symbol>

<symbol id="icon-diagram" viewBox="0 0 32 32">
  <path d="M14.926 14.965h1.066v4.798h-1.066v-4.797z"></path>
  <path d="M19.19 17.097h1.066v2.665h-1.066v-2.665z"></path>
  <path d="M10.661 18.696h1.066v1.066h-1.066v-1.066z"></path>
  <path d="M7.463 18.163h1.066v1.599h-1.066v-1.599z"></path>
  <path d="M1.599 28.291h25.587c0.883 0 1.599-0.716 1.599-1.599v-2.132c0-0.883-0.716-1.599-1.599-1.599h-0.533v-13.293l3.028-2.868c0.703 0.346 1.553 0.136 2.013-0.499s0.396-1.508-0.152-2.068-1.42-0.644-2.065-0.158c-0.644 0.486-0.873 1.326-0.542 2.045l-2.281 2.163v-1.23c0-0.883-0.716-1.599-1.599-1.599h-21.322c-0.883 0-1.599 0.716-1.599 1.599v15.992h-0.533c-0.883 0-1.599 0.716-1.599 1.599v2.132c0 0.883 0.716 1.599 1.599 1.599zM30.384 4.837c0.294 0 0.533 0.239 0.533 0.533s-0.239 0.533-0.533 0.533c-0.294 0-0.533-0.239-0.533-0.533s0.239-0.533 0.533-0.533zM3.198 6.969c0-0.294 0.239-0.533 0.533-0.533h21.322c0.294 0 0.533 0.239 0.533 0.533v2.239l-1.066 1.013v-2.186c0-0.294-0.239-0.533-0.533-0.533h-19.19c-0.294 0-0.533 0.239-0.533 0.533v13.326c0 0.294 0.239 0.533 0.533 0.533h19.19c0.294 0 0.533-0.239 0.533-0.533v-9.674l1.066-1.010v12.284h-22.388v-15.992zM7.996 13.899c-0.721-0.002-1.354 0.478-1.546 1.174s0.105 1.433 0.725 1.801c0.62 0.368 1.41 0.276 1.928-0.226l1.853 0.93c0.215 0.108 0.476 0.057 0.636-0.123l3.939-4.431 3.872 2.901c0.208 0.156 0.498 0.139 0.686-0.039l3.365-3.188v8.131h-18.124v-12.26h18.124v2.66l-3.771 3.572-3.904-2.927c-0.222-0.166-0.534-0.135-0.718 0.072l-3.993 4.493-1.493-0.746c0.011-0.064 0.018-0.129 0.020-0.193 0-0.883-0.716-1.599-1.599-1.599zM8.529 15.498c0 0.294-0.239 0.533-0.533 0.533s-0.533-0.239-0.533-0.533c0-0.294 0.239-0.533 0.533-0.533s0.533 0.239 0.533 0.533zM11.727 24.027h5.331v0.533c0 0.294-0.239 0.533-0.533 0.533h-4.264c-0.294 0-0.533-0.239-0.533-0.533v-0.533zM1.066 24.56c0-0.294 0.239-0.533 0.533-0.533h9.062v0.533c0 0.883 0.716 1.599 1.599 1.599h4.264c0.883 0 1.599-0.716 1.599-1.599v-0.533h9.062c0.294 0 0.533 0.239 0.533 0.533v2.132c0 0.294-0.239 0.533-0.533 0.533h-25.587c-0.294 0-0.533-0.239-0.533-0.533v-2.132z"></path>
</symbol>

<symbol id="icon-astronaut" viewBox="0 0 32 32">
  <path d="M31.974 4.524c-0.063-0.193-0.229-0.333-0.43-0.363l-1.91-0.278-0.855-1.731c-0.179-0.365-0.777-0.365-0.956 0l-0.855 1.731-1.91 0.278c-0.201 0.029-0.367 0.17-0.431 0.363-0.062 0.193-0.011 0.405 0.135 0.547l1.383 1.348-0.326 1.903c-0.034 0.2 0.048 0.402 0.212 0.522 0.166 0.121 0.382 0.135 0.562 0.040l1.709-0.899 1.709 0.899c0.078 0.041 0.164 0.061 0.249 0.061 0.11 0 0.221-0.034 0.314-0.102 0.164-0.119 0.246-0.322 0.212-0.522l-0.326-1.903 1.383-1.348c0.145-0.142 0.197-0.354 0.135-0.547zM29.511 5.851c-0.125 0.122-0.183 0.299-0.153 0.472l0.191 1.114-1-0.526c-0.078-0.041-0.163-0.061-0.249-0.061s-0.17 0.020-0.249 0.061l-1.001 0.526 0.191-1.114c0.030-0.173-0.028-0.349-0.153-0.472l-0.81-0.789 1.119-0.163c0.174-0.025 0.324-0.134 0.402-0.292l0.5-1.013 0.5 1.013c0.078 0.157 0.228 0.267 0.402 0.292l1.119 0.163-0.809 0.789z"></path>
  <path d="M26.133 20.522h-1.067v1.067h1.067v-1.067z"></path>
  <path d="M26.133 22.656h-1.067v1.067h1.067v-1.067z"></path>
  <path d="M27.2 21.589h-1.067v1.067h1.067v-1.067z"></path>
  <path d="M25.067 21.589h-1.067v1.067h1.067v-1.067z"></path>
  <path d="M22.4 26.389h-1.067v1.067h1.067v-1.067z"></path>
  <path d="M22.4 28.522h-1.067v1.067h1.067v-1.067z"></path>
  <path d="M23.467 27.456h-1.067v1.067h1.067v-1.067z"></path>
  <path d="M21.333 27.456h-1.067v1.067h1.067v-1.067z"></path>
  <path d="M16 24.256h-1.067v1.067h1.067v-1.067z"></path>
  <path d="M16 26.389h-1.067v1.067h1.067v-1.067z"></path>
  <path d="M17.067 25.322h-1.067v1.067h1.067v-1.067z"></path>
  <path d="M14.933 25.322h-1.067v1.067h1.067v-1.067z"></path>
  <path d="M5.867 6.122h-1.067v1.067h1.067v-1.067z"></path>
  <path d="M5.867 8.255h-1.067v1.067h1.067v-1.067z"></path>
  <path d="M6.933 7.189h-1.067v1.067h1.067v-1.067z"></path>
  <path d="M4.8 7.189h-1.067v1.067h1.067v-1.067z"></path>
  <path d="M24.715 14.159c-0.287-0.388-0.709-0.637-1.188-0.705-0.481-0.068-0.956 0.058-1.34 0.352l-1.252 0.96-1.898 1.417-1.358-0.541c2.421-1.086 4.114-3.508 4.114-6.32 0-3.823-3.123-6.933-6.961-6.933s-6.961 3.11-6.961 6.933c0 1.386 0.414 2.674 1.12 3.758l-2.764-0.024c-0.002 0-0.003 0-0.005 0-0.009 0-0.015 0.004-0.023 0.005-0.052 0.002-0.102 0.013-0.151 0.028-0.013 0.004-0.026 0.008-0.038 0.013-0.046 0.019-0.088 0.044-0.124 0.076-0.011 0.009-0.021 0.018-0.030 0.027-0.032 0.033-0.060 0.069-0.080 0.11-0.006 0.011-0.012 0.022-0.018 0.034-0.017 0.046-0.027 0.095-0.027 0.147v2.253c0 0.23 0.186 0.415 0.416 0.415h0.53c0.018 0.336 0.171 0.626 0.389 0.826-0.096 0.272-0.156 0.564-0.156 0.872 0 0.688 0.229 1.325 0.636 1.836-0.095 0.272-0.156 0.564-0.156 0.872 0 1.468 1.196 2.659 2.667 2.659v1.067c0 1.468 1.196 2.659 2.667 2.659h5.334c1.148 0 2.116-0.735 2.487-1.759 0.936-0.259 1.683-0.995 1.833-1.966l1.026-0.685c0.651-0.262 1.299-0.536 1.922-0.85 0.393-0.197 0.739-0.436 1.054-0.693 0.28-0.227 0.581-0.418 0.802-0.697 0.177-0.223 0.523-0.46 0.461-0.772-0.031-0.155-0.166-0.246-0.304-0.306-0.358-0.157-0.732-0.257-1.103-0.381-0.328-0.11-0.655-0.251-0.915-0.478-0.289-0.252-0.326-0.675-0.183-1.006 0.134-0.309 0.408-0.529 0.697-0.681 0.380-0.202 0.807-0.314 1.218-0.419l0.062-0.016c0.279-0.072 0.594-0.156 0.827-0.345 0.253-0.205 0.408-0.518 0.37-0.836-0.022-0.179-0.116-0.323-0.236-0.451zM11.996 3.336c0-0.621 0.509-1.126 1.134-1.126s1.134 0.505 1.134 1.126c0 0.358-0.174 0.673-0.443 0.879-0.012 0.008-0.022 0.017-0.033 0.027-0.039 0.034-0.082 0.063-0.129 0.087-0.013 0.006-0.026 0.010-0.039 0.014-0.051 0.016-0.105 0.027-0.161 0.027-0.001 0-0.002 0-0.003 0-0.021 0-0.040-0.004-0.060-0.006-0.015-0.001-0.030-0.001-0.044-0.004-0.051-0.007-0.100-0.021-0.147-0.040-0.013-0.005-0.026-0.009-0.038-0.015-0.054-0.025-0.104-0.057-0.149-0.096-0.007-0.006-0.015-0.009-0.022-0.016-0.267-0.218-0.438-0.54-0.438-0.905 0 0 0-0.001 0-0.001zM8.262 15.539c0.222 0 0.416-0.106 0.547-0.267 0.364 0.059 0.732 0.060 1.095-0.006 0.756-0.137 1.381-0.632 1.694-1.291 0.024-0.050 0.040-0.104 0.040-0.161 0-0.206-0.166-0.373-0.371-0.373-0.075 0-0.147 0.024-0.205 0.062-0.001 0.001-0.002 0.001-0.003 0.001l-0.013 0.008c-0.013 0.008-0.026 0.017-0.038 0.027-0.098 0.075-0.204 0.143-0.317 0.196-0.61 0.287-1.331 0.287-1.941 0.001-0.111-0.053-0.218-0.121-0.314-0.195-0.012-0.011-0.024-0.020-0.038-0.029-0.425-0.357-0.672-0.874-0.672-1.427 0-0.206-0.166-0.373-0.371-0.373s-0.371 0.167-0.371 0.373c0 0.151 0.028 0.297 0.069 0.438-0.247-0.044-0.499-0.067-0.753-0.072-0.002 0-0.003 0-0.005 0-0.017 0-0.032 0.003-0.048 0.005-0.017 0.001-0.034 0.002-0.050 0.006-0.016 0.003-0.031 0.009-0.047 0.015-0.016 0.005-0.032 0.010-0.047 0.018-0.015 0.008-0.028 0.019-0.042 0.030-0.014 0.010-0.028 0.020-0.040 0.033-0.013 0.013-0.023 0.028-0.034 0.043-0.010 0.015-0.020 0.030-0.028 0.046-0.008 0.016-0.013 0.034-0.017 0.051-0.005 0.017-0.010 0.034-0.011 0.052-0.001 0.008-0.004 0.016-0.004 0.025-0.001 0.017 0.001 0.034 0.004 0.050s0.008 0.032 0.015 0.048c0.006 0.016 0.012 0.031 0.021 0.045 0.009 0.015 0.020 0.028 0.032 0.041 0.012 0.013 0.024 0.025 0.038 0.036 0.014 0.011 0.029 0.019 0.045 0.026 0.015 0.008 0.031 0.015 0.048 0.020 0.017 0.005 0.033 0.007 0.051 0.008 0.018 0.001 0.035 0.002 0.052-0.001 0.017-0.002 0.033-0.008 0.050-0.013 0.022-0.006 0.043-0.012 0.064-0.022 0.372-0.016 0.740 0.022 1.094 0.125 0.024 0.007 0.048 0.012 0.071 0.020 0.001 0.001 0.002 0.001 0.004 0.001-0.040 0.141-0.068 0.287-0.068 0.438 0 0.206 0.166 0.373 0.371 0.373zM21.605 23.656c-0.757 0.516-1.677 0.752-2.583 0.658-0.056-0.006-0.109-0.001-0.161 0.015-0.152 0.046-0.282 0.184-0.282 0.356 0 0.159 0.101 0.291 0.241 0.344 0.001 0.001 0.002 0.001 0.003 0.001l0.016 0.004c0.346 0.146 0.701 0.239 1.058 0.285 0.023 0.003 0.046 0.006 0.070 0.009 0.370 0.038 0.747 0.033 1.125-0.025 1.654-0.252 3.099-1.251 3.961-2.536 0.053-0.080 0.086-0.171 0.086-0.272 0-0.267-0.215-0.484-0.482-0.484-0.203 0-0.379 0.128-0.45 0.307-0.583 1.156-1.789 2.019-3.175 2.324-0.189-0.250-0.436-0.455-0.725-0.602 0.046-0.062 0.084-0.131 0.116-0.204 0.149 0.044 0.310 0.068 0.476 0.068 0.206 0 0.373-0.166 0.373-0.371s-0.166-0.371-0.373-0.371c-0.055 0-0.109 0.014-0.157 0.035-0.102-0.045-0.190-0.097-0.274-0.150-0.73-0.465-1.099-1.343-0.899-2.13 0.151-0.594 0.589-1.107 1.122-1.443 0.562-0.352 1.192-0.444 1.798-0.444 0.206 0 0.371-0.166 0.371-0.371s-0.166-0.371-0.371-0.371c-1.681 0-3.283 0.844-4.193 2.285-0.236 0.374-0.667 0.621-1.133 0.627-0.003 0-0.006 0-0.009 0-0.022 0-0.044 0.003-0.065 0.006-0.022 0.003-0.043 0.008-0.063 0.015-0.022 0.007-0.042 0.016-0.063 0.027-0.020 0.011-0.040 0.022-0.058 0.036-0.018 0.014-0.035 0.030-0.050 0.048-0.016 0.017-0.031 0.035-0.044 0.055-0.012 0.020-0.023 0.041-0.032 0.063-0.008 0.022-0.015 0.045-0.020 0.068-0.004 0.024-0.007 0.047-0.007 0.071 0 0.001 0 0.002 0 0.003-0.023 0.381-0.578 0.404-0.625 0.633-0.163 0.852-0.074 1.759 0.474 2.482 0.219 0.287 0.494 0.521 0.803 0.696-0.005 0.012-0.008 0.025-0.012 0.037-0.039 0.129-0.070 0.261-0.095 0.396-0.363-0.016-0.702-0.155-0.949-0.393-0.536-0.52-0.802-1.285-0.673-2.022 0.012-0.069 0.008-0.139-0.012-0.204-0.058-0.188-0.232-0.325-0.437-0.325-0.008 0-0.016 0.001-0.025 0.001-0.090 0.007-0.169 0.045-0.226 0.102-0.002 0.002-0.005 0.004-0.007 0.006-0.058 0.061-0.098 0.141-0.098 0.233 0 0.003 0.001 0.006 0.001 0.009 0.060 0.938-0.187 1.892-0.706 2.705-0.477 0.744-1.141 1.307-1.956 1.621-0.578-0.758-0.852-1.689-0.729-2.631 0.124-0.950 0.628-1.782 1.346-2.334 0.139-0.107 0.214-0.295 0.146-0.478-0.068-0.184-0.254-0.303-0.452-0.262-0.755 0.157-1.363 0.648-1.639 1.320-0.338 0.828-0.25 1.741 0.235 2.486-0.177 0.055-0.345 0.126-0.501 0.212-0.733-0.966-1.165-2.163-1.165-3.462 0-1.070 0.301-2.071 0.818-2.929 0.025-0.013 0.049-0.030 0.071-0.048l2.452 0.021c0.327 0.727 0.904 1.346 1.677 1.723 0.927 0.452 2.023 0.452 2.95 0 0.773-0.377 1.351-0.996 1.677-1.723l2.452-0.021c0.022 0.018 0.046 0.035 0.071 0.048 0.516 0.858 0.818 1.859 0.818 2.929 0 3.125-2.560 5.666-5.702 5.666-0.978 0-1.93-0.255-2.769-0.725-0.011-0.005-0.022-0.010-0.034-0.015-0.012-0.006-0.025-0.008-0.038-0.012-0.022-0.006-0.044-0.011-0.067-0.014-0.002 0-0.005 0-0.007-0.001h-0.001c-0.254-0.023-0.475 0.119-0.563 0.323-0.053 0.123-0.052 0.258 0.001 0.376 0.055 0.122 0.158 0.220 0.293 0.258 0.098 0.028 0.190 0.030 0.277 0.010 0.008 0.003 0.016 0.007 0.024 0.009 0.001 0 0.001 0 0.002 0.001 1.004 0.557 2.161 0.886 3.379 0.886 3.024 0 5.566-1.864 6.613-4.494 0.111-0.279 0.176-0.575 0.176-0.879 0-0.508-0.159-0.979-0.425-1.371 0.255-0.160 0.509-0.327 0.760-0.508zM19.029 11.644c0.628 0.139 1.129 0.571 1.336 1.143 0.103 0.285 0.132 0.589 0.088 0.881-0.261-0.262-0.565-0.491-0.9-0.68-0.376-0.212-0.777-0.353-1.187-0.423-0.013-0.228-0.086-0.443-0.206-0.633 0.368-0.111 0.761-0.118 1.111-0.019 0.201 0.045 0.404-0.012 0.552-0.142zM16.728 24.998c-0.066-0.013-0.13-0.026-0.195-0.041-0.450-0.101-0.889-0.243-1.309-0.431l-0.654 0.272c-0.263 0.109-0.446 0.364-0.446 0.659v0.473h-2.138v-2.137c0-0.294-0.183-0.549-0.446-0.659l-0.327-0.136c0.025-0.209 0.070-0.417 0.136-0.622 0.079-0.247 0.183-0.486 0.312-0.711 0.076-0.134 0.163-0.262 0.259-0.382 0.035-0.043 0.069-0.087 0.106-0.129 0.001-0.001 0.001-0.002 0.002-0.003 0 0 0-0.001 0.001-0.001 0.063-0.071 0.127-0.139 0.195-0.204 0.049-0.047 0.100-0.093 0.153-0.137 0.111-0.093 0.229-0.179 0.353-0.255 0.017-0.011 0.034-0.021 0.052-0.031 0.106-0.063 0.217-0.120 0.331-0.169 0.002-0.001 0.005-0.002 0.007-0.003 0.233-0.1 0.481-0.169 0.739-0.203 0.018-0.002 0.037-0.005 0.055-0.007 0.043-0.005 0.087-0.007 0.131-0.010 0.066-0.004 0.133-0.007 0.201-0.006 0.084 0.001 0.168 0.007 0.252 0.016 0.002 0 0.005 0.001 0.007 0.001 0.082 0.009 0.163 0.022 0.244 0.038 0.028 0.005 0.056 0.010 0.084 0.016 0.224 0.050 0.442 0.124 0.647 0.223v1.776c0 0.206 0.166 0.373 0.371 0.373s0.371-0.167 0.371-0.373v-1.611c0.019 0.015 0.039 0.029 0.058 0.044 0.671 0.528 1.086 1.307 1.144 2.146zm-6.4-0.721c-0.058-0.467-0.357-0.867-0.786-1.067l-0.638-0.264c0.238-0.27 0.514-0.5 0.808-0.695 0.011-0.008 0.023-0.015 0.034-0.022-0.030 0.105-0.052 0.214-0.052 0.328v0.124c0 0.256 0.207 0.463 0.463 0.463s0.463-0.207 0.463-0.463v-0.067c0.002-0.023 0.012-0.045 0.012-0.069 0-0.137-0.042-0.264-0.112-0.371 0.178-0.077 0.363-0.143 0.552-0.194v1.891c0 0.025 0.005 0.049 0.009 0.074-0.267 0.101-0.508 0.260-0.703 0.465-0.019 0.020-0.034 0.041-0.052 0.062zm8.875-7.212c-0.322 0.411-0.771 0.691-1.254 0.885-0.776 0.312-1.651 0.312-2.425 0.001-0.483-0.193-0.931-0.474-1.253-0.885-0.318-0.406-0.487-0.922-0.485-1.418-0.001-0.020-0.001-0.040-0.003-0.059l3.954-1.573 1.47 1.623c0.001 0.481-0.166 0.995-0.485 1.401zM15.195 12.947l-1.809 0.719c0.009-1.473 1.212-2.665 2.692-2.665 0.518 0 1.002 0.151 1.415 0.407l-2.297 1.539zM15.726 15.556l-1.162-1.284 1.887-0.75 1.27 0.851-1.995 1.183zM18.944 13.473c0.010 0.010 0.017 0.023 0.025 0.035-0.141-0.016-0.285-0.026-0.431-0.026-0.326 0-0.635 0.042-0.926 0.12-0.010-0.010-0.022-0.018-0.033-0.028l-1.439-0.96 2.181-1.46c0.334 0.271 0.601 0.625 0.776 1.029l-0.149 0.165c-0.123 0.135-0.115 0.344 0.018 0.469 0.062 0.057 0.142 0.087 0.223 0.087 0.089 0 0.179-0.036 0.244-0.104l0.087-0.096c0.025 0.122 0.038 0.247 0.041 0.373l-0.618 0.396zM23.374 20.114c-0.032 0.020-0.066 0.033-0.097 0.054-0.438 0.286-0.899 0.538-1.374 0.763-0.015 0.006-0.027 0.014-0.042 0.020 0.079-0.694-0.154-1.415-0.646-1.918-0.466-0.476-1.090-0.739-1.739-0.739-0.176 0-0.349 0.019-0.518 0.054-1.160 0.244-2.039 1.204-2.242 2.338 0 0.001 0 0.003-0.001 0.004-0.023 0.136-0.039 0.273-0.039 0.414 0 0.95 0.546 1.765 1.343 2.194 0.010 0.006 0.014 0.017 0.025 0.022 0.485 0.249 1.070 0.308 1.607 0.160 0.010-0.003 0.019-0.001 0.029-0.005 0.14-0.042 0.275-0.096 0.403-0.158 0.505-0.242 0.908-0.656 1.134-1.188 0.478-1.127 0.012-2.454-1.102-2.962 0.006-0.023 0.011-0.046 0.018-0.067 0.102-0.297 0.382-0.495 0.693-0.495h0.192c0.070 0 0.135 0.022 0.199 0.037 0.358 0.085 0.718 0.125 1.070 0.17 0.152 0.019 0.316 0.039 0.469 0.063 0.359 0.058 0.565 0.210 0.687 0.408 0.063 0.103 0.103 0.215 0.113 0.337 0.001 0.007 0.002 0.013 0.003 0.020-0.225 0.004-0.451-0.014-0.686-0.074zM23.008 19.885c-0.005-0.030-0.015-0.058-0.023-0.087 0.216-0.035 0.429-0.081 0.639-0.139 0.060-0.016 0.117-0.035 0.176-0.053-0.169 0.095-0.336 0.193-0.507 0.284-0.094-0.004-0.191-0.001-0.285-0.004zM20.738 23.318c-0.195 0.457-0.564 0.824-1.040 1.013-0.711 0.287-1.591 0.036-2.134-0.507-0.482-0.479-0.687-1.25-0.49-1.909 0.187-0.626 0.691-1.145 1.321-1.276 0.635-0.133 1.261 0.087 1.673 0.518 0.469 0.490 0.616 1.179 0.388 1.784-0.036 0.084-0.013 0.18 0.052 0.244 0.059 0.059 0.144 0.078 0.231 0.054 0.016-0.004 0.029-0.012 0.044-0.019 0.049-0.026 0.085-0.069 0.091-0.128 0.023-0.195 0.011-0.397-0.035-0.594 0.353 0.397 0.492 0.925 0.371 1.451l-0.003 0.010c-0.116 0.109-0.267 0.204-0.432 0.255-0.020-0.045-0.052-0.086-0.109-0.113-0.189-0.091-0.416-0.008-0.505 0.184-0.089 0.192-0.007 0.419 0.183 0.508 0.037 0.017 0.076 0.025 0.115 0.029zM30.063 13.109c-0.824-0.851-2.54-0.809-2.647-0.768-0.212 0.080-0.317 0.316-0.232 0.525 0.082 0.203 0.31 0.303 0.524 0.223 0.175-0.065 1.469-0.025 1.953 0.475 0.283 0.293 0.433 0.701 0.417 1.145-0.018 0.487-0.233 0.983-0.61 1.405-0.592 0.666-1.572 1.032-2.617 0.974-0.026-0.002-0.051-0.002-0.077 0-0.146 0.009-0.283 0.073-0.365 0.187-0.074 0.104-0.11 0.233-0.078 0.360s0.118 0.233 0.248 0.29c0.019 0.008 0.038 0.014 0.058 0.020 0.705 0.195 1.475 0.120 2.108-0.152 0.779-0.336 1.432-0.992 1.797-1.866 0.148-0.356 0.24-0.899 0.23-1.404-0.015-0.674-0.261-1.304-0.709-1.777z"></path>
</symbol>

<symbol id="icon-instagram" viewBox="0 0 32 32">
  <path d="M31.969 9.408c-0.075-1.7-0.35-2.869-0.744-3.882-0.406-1.075-1.031-2.038-1.85-2.838-0.8-0.813-1.769-1.444-2.832-1.844-1.019-0.394-2.182-0.669-3.882-0.744-1.713-0.081-2.257-0.1-6.601-0.1s-4.888 0.019-6.595 0.094c-1.7 0.075-2.869 0.35-3.882 0.744-1.075 0.406-2.038 1.031-2.838 1.85-0.813 0.8-1.444 1.769-1.844 2.832-0.394 1.019-0.669 2.182-0.744 3.882-0.081 1.713-0.1 2.257-0.1 6.601s0.019 4.888 0.094 6.595c0.075 1.7 0.35 2.869 0.744 3.882 0.406 1.075 1.038 2.038 1.85 2.838 0.8 0.813 1.769 1.444 2.832 1.844 1.019 0.394 2.182 0.669 3.882 0.744 1.706 0.075 2.25 0.094 6.595 0.094s4.888-0.019 6.595-0.094c1.7-0.075 2.869-0.35 3.882-0.744 2.151-0.831 3.851-2.532 4.682-4.682 0.394-1.019 0.669-2.182 0.744-3.882 0.075-1.707 0.094-2.251 0.094-6.595s-0.006-4.888-0.081-6.595zM29.087 22.473c-0.069 1.563-0.331 2.407-0.55 2.969-0.538 1.394-1.638 2.494-3.032 3.032-0.563 0.219-1.413 0.481-2.969 0.55-1.688 0.075-2.194 0.094-6.464 0.094s-4.782-0.019-6.464-0.094c-1.563-0.069-2.407-0.331-2.969-0.55-0.694-0.256-1.325-0.663-1.838-1.194-0.531-0.519-0.938-1.144-1.194-1.838-0.219-0.563-0.481-1.413-0.55-2.969-0.075-1.688-0.094-2.194-0.094-6.464s0.019-4.782 0.094-6.464c0.069-1.563 0.331-2.407 0.55-2.969 0.256-0.694 0.663-1.325 1.2-1.838 0.519-0.531 1.144-0.938 1.838-1.194 0.563-0.219 1.413-0.481 2.969-0.55 1.688-0.075 2.194-0.094 6.464-0.094 4.276 0 4.782 0.019 6.464 0.094 1.563 0.069 2.407 0.331 2.969 0.55 0.694 0.256 1.325 0.662 1.838 1.194 0.531 0.519 0.938 1.144 1.194 1.838 0.219 0.563 0.481 1.413 0.55 2.969 0.075 1.688 0.094 2.194 0.094 6.464s-0.019 4.77-0.094 6.458z"></path>
  <path d="M16.059 7.783c-4.538 0-8.22 3.682-8.22 8.22s3.682 8.22 8.22 8.22c4.538 0 8.22-3.682 8.22-8.22s-3.682-8.22-8.22-8.22zM16.059 21.335c-2.944 0-5.332-2.388-5.332-5.332s2.388-5.332 5.332-5.332c2.944 0 5.332 2.388 5.332 5.332s-2.388 5.332-5.332 5.332z"></path>
  <path d="M26.524 7.458c0 1.060-0.859 1.919-1.919 1.919s-1.919-0.859-1.919-1.919c0-1.060 0.859-1.919 1.919-1.919s1.919 0.859 1.919 1.919z"></path>
</symbol>

<symbol id="icon-twitter" viewBox="0 0 32 32">
  <path d="M32 6.078c-1.19 0.522-2.458 0.868-3.78 1.036 1.36-0.812 2.398-2.088 2.886-3.626-1.268 0.756-2.668 1.29-4.16 1.588-1.204-1.282-2.92-2.076-4.792-2.076-3.632 0-6.556 2.948-6.556 6.562 0 0.52 0.044 1.020 0.152 1.496-5.454-0.266-10.28-2.88-13.522-6.862-0.566 0.982-0.898 2.106-0.898 3.316 0 2.272 1.17 4.286 2.914 5.452-1.054-0.020-2.088-0.326-2.964-0.808 0 0.020 0 0.046 0 0.072 0 3.188 2.274 5.836 5.256 6.446-0.534 0.146-1.116 0.216-1.72 0.216-0.42 0-0.844-0.024-1.242-0.112 0.85 2.598 3.262 4.508 6.13 4.57-2.232 1.746-5.066 2.798-8.134 2.798-0.538 0-1.054-0.024-1.57-0.090 2.906 1.874 6.35 2.944 10.064 2.944 12.072 0 18.672-10 18.672-18.668 0-0.29-0.010-0.57-0.024-0.848 1.302-0.924 2.396-2.078 3.288-3.406z"></path>
</symbol>

<symbol id="icon-facebook" viewBox="0 0 32 32">
  <path d="M21.329 5.313h2.921v-5.088c-0.504-0.069-2.237-0.225-4.256-0.225-4.212 0-7.097 2.649-7.097 7.519v4.481h-4.648v5.688h4.648v14.312h5.699v-14.311h4.46l0.708-5.688h-5.169v-3.919c0.001-1.644 0.444-2.769 2.735-2.769z"></path>
</symbol>

<symbol id="icon-linkedin" viewBox="0 0 32 32">
  <path d="M31.992 32v-0.001h0.008v-11.736c0-5.741-1.236-10.164-7.948-10.164-3.227 0-5.392 1.771-6.276 3.449h-0.093v-2.913h-6.364v21.364h6.627v-10.579c0-2.785 0.528-5.479 3.977-5.479 3.399 0 3.449 3.179 3.449 5.657v10.401h6.62z"></path>
  <path d="M0.528 10.636h6.635v21.364h-6.635v-21.364z"></path>
  <path d="M3.843 0c-2.121 0-3.843 1.721-3.843 3.843s1.721 3.879 3.843 3.879c2.121 0 3.843-1.757 3.843-3.879-0.001-2.121-1.723-3.843-3.843-3.843v0z"></path>
</symbol>
</defs>
</svg>